<?xml version="1.0" standalone="no"?>
<!DOCTYPE svg PUBLIC "-//W3C//DTD SVG 20010904//EN"
 "http://www.w3.org/TR/2001/REC-SVG-20010904/DTD/svg10.dtd">
<svg version="1.0" xmlns="http://www.w3.org/2000/svg"
 width="1000.000000pt" height="1000.000000pt" viewBox="0 0 1000.000000 1000.000000"
 preserveAspectRatio="xMidYMid meet">
<metadata>
Created by potrace 1.14, written by Peter Selinger 2001-2017
</metadata>
<g transform="translate(0.000000,1000.000000) scale(0.100000,-0.100000)"
fill="#000000" stroke="none">
<path d="M456 9992 c-4 -4 -11 -7 -14 -8 -20 -2 -70 -18 -87 -28 -11 -5 -22
-11 -25 -11 -14 -3 -70 -41 -70 -48 0 -5 -4 -5 -10 -2 -5 3 -15 -3 -22 -15 -7
-11 -17 -20 -23 -20 -6 0 -24 -16 -40 -35 -17 -20 -40 -47 -52 -61 -13 -14
-23 -32 -23 -40 0 -7 -4 -14 -10 -14 -5 0 -10 -7 -10 -15 0 -8 -5 -15 -11 -15
-5 0 -7 -4 -4 -10 3 -5 1 -10 -5 -10 -6 0 -9 -4 -5 -9 3 -5 1 -12 -5 -16 -6
-4 -8 -11 -5 -16 4 -5 1 -9 -4 -9 -6 0 -10 -3 -10 -7 1 -5 0 -10 -1 -13 -1 -3
-4 -14 -8 -25 -12 -36 -13 -9115 -2 -9115 6 0 10 -6 9 -13 -1 -6 1 -20 4 -30
4 -9 10 -25 14 -35 3 -9 7 -20 7 -23 3 -16 80 -131 92 -136 8 -3 12 -8 9 -13
-2 -4 9 -19 25 -34 17 -14 30 -23 30 -20 0 4 9 -5 21 -20 11 -14 24 -24 29
-21 4 3 11 -2 14 -11 3 -8 10 -12 16 -9 5 3 10 2 10 -3 0 -8 59 -40 71 -38 3
0 13 -5 22 -13 10 -7 17 -11 17 -8 0 3 16 -1 35 -8 30 -13 629 -15 4577 -12
2499 2 4549 5 4556 7 6 2 12 7 12 11 0 5 7 6 15 3 8 -4 15 -1 15 6 0 7 7 10
15 6 8 -3 21 2 29 10 9 8 17 14 18 13 8 -3 58 25 58 33 0 4 4 8 10 8 18 0 132
99 125 109 -2 4 5 13 15 21 10 8 17 17 14 22 -3 4 -1 8 4 8 10 0 70 107 75
136 2 11 9 30 15 44 15 35 16 9073 1 9121 -6 19 -16 45 -24 59 -7 14 -13 27
-13 30 0 14 -26 60 -34 60 -5 0 -7 4 -4 8 3 5 -11 26 -31 48 -19 21 -34 39
-32 39 2 0 -6 10 -16 23 -11 12 -22 22 -26 22 -4 0 -21 14 -39 30 -18 16 -38
30 -46 30 -8 0 -14 5 -14 10 0 6 -6 10 -14 10 -7 0 -19 7 -26 15 -7 8 -16 13
-20 10 -5 -3 -11 -1 -15 5 -4 6 -11 8 -16 5 -5 -4 -9 -1 -9 6 0 7 -2 10 -5 7
-3 -3 -22 1 -43 8 -30 11 -833 13 -4568 14 -2492 0 -4534 -3 -4538 -8z"/>
</g>
</svg>
